<svg xmlns="http://www.w3.org/2000/svg" xmlns:xlink="http://www.w3.org/1999/xlink" width="2152" zoomAndPan="magnify" viewBox="0 0 1614 1076.250012" height="1435" preserveAspectRatio="xMidYMid meet" version="1.2"><defs><clipPath id="5bd72915f3"><path d="M 345.332031 632.597656 L 483.253906 632.597656 L 483.253906 830.859375 L 345.332031 830.859375 Z M 345.332031 632.597656 "/></clipPath><clipPath id="f96f739a6e"><path d="M 345.332031 829.019531 C 351.925781 829.019531 355.226562 821.957031 355.226562 807.828125 L 355.226562 655.207031 C 355.226562 641.074219 351.925781 634.015625 345.332031 634.015625 L 345.332031 632.597656 L 390.550781 632.597656 L 390.550781 634.015625 C 383.957031 634.015625 380.65625 641.074219 380.65625 655.207031 L 380.65625 826.195312 L 432.378906 826.195312 C 445.941406 826.195312 456.632812 822.199219 464.449219 814.191406 C 472.269531 806.183594 477.59375 793.695312 480.417969 776.742188 L 483.238281 777.019531 L 476.734375 830.433594 L 345.332031 830.433594 Z M 345.332031 829.019531 "/></clipPath><clipPath id="62a5e390f9"><path d="M 490.640625 892.476562 L 514 892.476562 L 514 925.832031 L 490.640625 925.832031 Z M 490.640625 892.476562 "/></clipPath><clipPath id="64a396e7a5"><path d="M 512.707031 912.8125 C 513.550781 914.058594 513.976562 915.386719 513.976562 916.8125 C 513.976562 918.035156 513.679688 919.210938 513.085938 920.316406 C 512.492188 921.417969 511.625 922.394531 510.496094 923.222656 C 508.183594 924.886719 505.476562 925.707031 502.386719 925.707031 C 500.855469 925.707031 499.40625 925.492188 498.019531 925.066406 C 496.628906 924.636719 495.382812 924.019531 494.289062 923.222656 C 492.402344 921.835938 491.261719 920.125 490.859375 918.105469 L 492.996094 916.90625 C 493.089844 918.734375 493.992188 920.21875 495.679688 921.382812 C 496.546875 922.050781 497.554688 922.546875 498.707031 922.902344 C 499.859375 923.261719 501.09375 923.425781 502.386719 923.425781 C 505.035156 923.425781 507.28125 922.75 509.097656 921.382812 C 510.855469 920.089844 511.730469 918.570312 511.730469 916.8125 C 511.730469 915.78125 511.410156 914.816406 510.757812 913.925781 C 510.105469 913.035156 509.214844 912.265625 508.050781 911.636719 C 506.957031 911.078125 505 910.625 502.1875 910.292969 C 501.949219 910.257812 501.117188 910.128906 499.679688 909.890625 C 498.242188 909.652344 496.996094 909.296875 495.976562 908.796875 C 494.347656 908 493.078125 906.945312 492.152344 905.640625 C 491.226562 904.332031 490.761719 902.917969 490.761719 901.386719 C 490.761719 900.164062 491.070312 899.011719 491.675781 897.933594 C 492.28125 896.851562 493.160156 895.902344 494.289062 895.070312 C 495.382812 894.289062 496.628906 893.679688 498.019531 893.242188 C 499.40625 892.804688 500.867188 892.601562 502.386719 892.601562 C 505.476562 892.601562 508.171875 893.433594 510.496094 895.082031 C 512.421875 896.542969 513.550781 898.230469 513.882812 900.152344 L 511.746094 901.351562 C 511.707031 900.519531 511.472656 899.726562 511.019531 898.964844 C 510.570312 898.207031 509.9375 897.503906 509.109375 896.875 C 508.21875 896.210938 507.183594 895.710938 506.019531 895.355469 C 504.855469 895 503.644531 894.832031 502.386719 894.832031 C 501.128906 894.832031 499.90625 895.011719 498.730469 895.355469 C 497.554688 895.699219 496.535156 896.210938 495.667969 896.875 C 494.8125 897.503906 494.148438 898.207031 493.683594 898.988281 C 493.21875 899.773438 492.984375 900.570312 492.984375 901.398438 C 492.984375 902.433594 493.363281 903.441406 494.125 904.453125 C 494.882812 905.460938 495.832031 906.246094 496.960938 906.8125 C 497.660156 907.148438 498.421875 907.382812 499.277344 907.539062 C 500.132812 907.691406 501.210938 907.847656 502.53125 908.011719 C 502.765625 908.050781 503.335938 908.132812 504.277344 908.261719 C 505.214844 908.394531 506.09375 908.582031 506.957031 908.808594 C 507.824219 909.035156 508.550781 909.320312 509.144531 909.652344 C 510.664062 910.519531 511.851562 911.5625 512.695312 912.8125 "/></clipPath><clipPath id="a67fba79e1"><path d="M 490.214844 892.054688 L 514.523438 892.054688 L 514.523438 926.257812 L 490.214844 926.257812 Z M 490.214844 892.054688 "/></clipPath><clipPath id="711164a0dd"><path d="M 513.15625 912.503906 C 514.058594 913.832031 514.523438 915.269531 514.523438 916.8125 L 513.976562 916.8125 L 514.523438 916.8125 C 514.523438 918.128906 514.203125 919.390625 513.5625 920.578125 L 513.085938 920.316406 L 513.574219 920.578125 C 512.933594 921.765625 512.015625 922.796875 510.828125 923.664062 C 508.40625 925.398438 505.59375 926.253906 502.410156 926.253906 L 502.410156 925.707031 L 502.410156 926.253906 C 500.832031 926.253906 499.324219 926.027344 497.875 925.585938 L 498.042969 925.066406 L 497.875 925.585938 C 496.425781 925.136719 495.132812 924.496094 493.980469 923.664062 C 491.996094 922.203125 490.761719 920.386719 490.335938 918.214844 L 490.265625 917.820312 L 490.609375 917.632812 L 492.746094 916.433594 L 493.503906 916.003906 L 493.554688 916.882812 C 493.648438 918.511719 494.433594 919.863281 496 920.945312 L 496.023438 920.96875 C 496.832031 921.585938 497.78125 922.0625 498.882812 922.394531 L 498.730469 922.914062 L 498.882812 922.394531 C 499.988281 922.726562 501.164062 922.890625 502.410156 922.890625 L 502.410156 923.4375 L 502.410156 922.890625 C 504.964844 922.890625 507.078125 922.238281 508.800781 920.957031 C 510.449219 919.734375 511.210938 918.367188 511.210938 916.824219 L 511.757812 916.824219 L 511.210938 916.824219 C 511.210938 915.921875 510.925781 915.066406 510.34375 914.257812 L 510.78125 913.9375 L 510.34375 914.257812 C 509.75 913.441406 508.917969 912.726562 507.8125 912.132812 L 508.074219 911.660156 L 507.824219 912.144531 C 506.828125 911.636719 504.964844 911.195312 502.148438 910.863281 L 502.125 910.863281 C 501.890625 910.828125 501.046875 910.695312 499.609375 910.460938 C 498.125 910.222656 496.84375 909.84375 495.75 909.320312 C 494.050781 908.488281 492.699219 907.382812 491.710938 905.984375 L 492.164062 905.664062 L 491.722656 905.984375 C 490.714844 904.570312 490.214844 903.050781 490.214844 901.398438 L 490.761719 901.398438 L 490.214844 901.398438 C 490.214844 900.082031 490.550781 898.835938 491.203125 897.671875 C 491.855469 896.519531 492.78125 895.511719 493.957031 894.644531 C 495.109375 893.8125 496.402344 893.171875 497.851562 892.71875 C 499.300781 892.28125 500.820312 892.054688 502.398438 892.054688 L 502.398438 892.601562 L 502.398438 892.054688 C 505.582031 892.054688 508.394531 892.910156 510.816406 894.644531 L 510.84375 894.644531 C 512.847656 896.164062 514.070312 897.96875 514.429688 900.058594 L 514.5 900.4375 L 514.167969 900.628906 L 512.027344 901.828125 L 511.257812 902.253906 L 511.222656 901.363281 C 511.1875 900.628906 510.984375 899.914062 510.570312 899.226562 C 510.164062 898.539062 509.570312 897.886719 508.800781 897.292969 L 509.132812 896.851562 L 508.8125 897.292969 C 507.96875 896.671875 507.007812 896.1875 505.890625 895.855469 C 504.785156 895.523438 503.621094 895.355469 502.421875 895.355469 L 502.421875 894.832031 L 502.421875 895.378906 C 501.210938 895.378906 500.046875 895.546875 498.921875 895.878906 L 498.765625 895.355469 L 498.921875 895.878906 C 497.804688 896.210938 496.84375 896.6875 496.046875 897.304688 C 495.238281 897.898438 494.621094 898.550781 494.207031 899.25 L 493.742188 898.964844 L 494.207031 899.238281 C 493.789062 899.9375 493.589844 900.652344 493.589844 901.375 L 492.996094 901.375 L 493.542969 901.375 C 493.542969 902.253906 493.875 903.167969 494.574219 904.105469 L 494.136719 904.441406 L 494.574219 904.105469 C 495.285156 905.058594 496.164062 905.78125 497.222656 906.316406 L 496.972656 906.800781 L 497.210938 906.316406 C 497.851562 906.625 498.574219 906.851562 499.382812 906.992188 C 500.214844 907.136719 501.296875 907.289062 502.613281 907.457031 C 502.648438 907.457031 502.707031 907.46875 502.765625 907.480469 C 502.863281 907.492188 502.96875 907.503906 503.113281 907.527344 C 503.410156 907.574219 503.824219 907.632812 504.359375 907.703125 C 505.308594 907.835938 506.222656 908.027344 507.113281 908.261719 L 506.972656 908.785156 L 507.113281 908.261719 C 508.003906 908.5 508.777344 908.796875 509.429688 909.152344 C 511.019531 910.042969 512.265625 911.160156 513.167969 912.476562 L 512.71875 912.785156 L 513.167969 912.476562 M 512.265625 913.097656 C 511.472656 911.933594 510.355469 910.933594 508.894531 910.101562 L 509.167969 909.628906 L 508.90625 910.101562 C 508.359375 909.792969 507.671875 909.535156 506.839844 909.308594 C 505.996094 909.082031 505.128906 908.902344 504.214844 908.773438 L 504.300781 908.238281 L 504.226562 908.773438 C 503.707031 908.703125 503.289062 908.644531 502.980469 908.59375 C 502.839844 908.570312 502.730469 908.558594 502.636719 908.546875 C 502.578125 908.535156 502.53125 908.535156 502.484375 908.523438 L 502.554688 907.988281 L 502.484375 908.535156 C 501.152344 908.371094 500.058594 908.214844 499.207031 908.0625 L 499.300781 907.527344 L 499.207031 908.0625 C 498.316406 907.90625 497.496094 907.644531 496.746094 907.300781 C 495.546875 906.695312 494.539062 905.851562 493.71875 904.785156 C 492.898438 903.703125 492.460938 902.574219 492.460938 901.398438 C 492.460938 900.460938 492.722656 899.558594 493.234375 898.703125 C 493.742188 897.847656 494.457031 897.101562 495.371094 896.4375 L 495.691406 896.875 L 495.359375 896.449219 C 496.285156 895.734375 497.363281 895.203125 498.597656 894.84375 C 499.835938 894.476562 501.09375 894.300781 502.410156 894.300781 C 503.730469 894.300781 504.988281 894.476562 506.199219 894.84375 L 506.042969 895.367188 L 506.199219 894.84375 C 507.410156 895.214844 508.503906 895.734375 509.453125 896.449219 C 510.332031 897.113281 511.019531 897.859375 511.507812 898.691406 L 511.03125 898.964844 L 511.507812 898.691406 C 511.992188 899.523438 512.265625 900.402344 512.300781 901.328125 L 511.757812 901.351562 L 511.496094 900.878906 L 513.632812 899.679688 L 513.894531 900.152344 L 513.359375 900.246094 C 513.0625 898.492188 512.027344 896.910156 510.1875 895.523438 L 510.519531 895.082031 L 510.199219 895.523438 C 507.980469 893.941406 505.390625 893.136719 502.410156 893.136719 C 500.9375 893.136719 499.539062 893.347656 498.195312 893.753906 L 498.019531 893.242188 L 498.183594 893.765625 C 496.84375 894.179688 495.65625 894.761719 494.609375 895.523438 L 494.289062 895.082031 L 494.609375 895.523438 C 493.542969 896.304688 492.722656 897.207031 492.152344 898.21875 L 491.675781 897.945312 L 492.152344 898.21875 C 491.582031 899.214844 491.308594 900.273438 491.308594 901.398438 C 491.308594 902.800781 491.738281 904.105469 492.601562 905.332031 C 493.46875 906.554688 494.667969 907.550781 496.226562 908.308594 L 495.988281 908.796875 L 496.226562 908.308594 C 497.1875 908.773438 498.375 909.128906 499.773438 909.355469 L 499.691406 909.890625 L 499.773438 909.355469 C 501.222656 909.59375 502.054688 909.722656 502.28125 909.746094 L 502.210938 910.28125 L 502.269531 909.734375 C 505.082031 910.066406 507.136719 910.519531 508.324219 911.136719 C 509.546875 911.800781 510.507812 912.609375 511.222656 913.582031 C 511.933594 914.566406 512.289062 915.636719 512.289062 916.789062 C 512.289062 918.757812 511.292969 920.433594 509.429688 921.800781 L 509.109375 921.359375 L 509.429688 921.800781 C 507.492188 923.234375 505.140625 923.949219 502.386719 923.949219 C 501.046875 923.949219 499.761719 923.769531 498.550781 923.402344 C 497.328125 923.035156 496.261719 922.5 495.347656 921.800781 L 495.679688 921.371094 L 495.371094 921.824219 C 493.566406 920.578125 492.554688 918.9375 492.449219 916.929688 L 492.996094 916.894531 L 493.257812 917.371094 L 491.117188 918.570312 L 490.859375 918.09375 L 491.390625 917.988281 C 491.761719 919.851562 492.816406 921.457031 494.609375 922.773438 L 494.289062 923.210938 L 494.609375 922.773438 C 495.65625 923.53125 496.84375 924.113281 498.183594 924.53125 C 499.527344 924.945312 500.925781 925.148438 502.398438 925.148438 C 505.378906 925.148438 507.96875 924.351562 510.1875 922.761719 L 510.507812 923.199219 L 510.1875 922.761719 C 511.257812 921.976562 512.066406 921.0625 512.609375 920.03125 C 513.167969 918.996094 513.441406 917.917969 513.441406 916.789062 C 513.441406 915.484375 513.0625 914.246094 512.265625 913.097656 Z M 512.265625 913.097656 "/></clipPath><clipPath id="c111c08005"><path d="M 505.863281 632.597656 L 551.082031 632.597656 L 551.082031 830.4375 L 505.863281 830.4375 Z M 505.863281 632.597656 "/></clipPath><clipPath id="372dfb5531"><path d="M 505.863281 829.019531 C 512.453125 829.019531 515.757812 821.957031 515.757812 807.828125 L 515.757812 655.207031 C 515.757812 641.074219 512.453125 634.015625 505.863281 634.015625 L 505.863281 632.597656 L 551.082031 632.597656 L 551.082031 634.015625 C 544.476562 634.015625 541.1875 641.074219 541.1875 655.207031 L 541.1875 807.828125 C 541.1875 821.957031 544.476562 829.019531 551.082031 829.019531 L 551.082031 830.433594 L 505.863281 830.433594 Z M 505.863281 829.019531 "/></clipPath><clipPath id="e9a4268934"><path d="M 537.234375 893 L 559.378906 893 L 559.378906 925.332031 L 537.234375 925.332031 Z M 537.234375 893 "/></clipPath><clipPath id="c169427b76"><path d="M 539.585938 908.957031 L 548.835938 908.957031 C 550.332031 908.957031 551.699219 908.648438 552.96875 908.042969 C 554.238281 907.4375 555.226562 906.605469 555.972656 905.5625 C 556.722656 904.515625 557.089844 903.378906 557.089844 902.15625 C 557.089844 900.894531 556.710938 899.746094 555.972656 898.699219 C 555.238281 897.65625 554.226562 896.824219 552.96875 896.21875 C 551.710938 895.613281 550.332031 895.292969 548.835938 895.292969 L 539.527344 895.292969 Z M 537.34375 925.308594 L 537.296875 893 L 548.824219 893 C 550.710938 893 552.457031 893.414062 554.074219 894.246094 C 555.6875 895.078125 556.957031 896.183594 557.898438 897.582031 C 558.835938 898.984375 559.308594 900.503906 559.308594 902.15625 C 559.308594 903.78125 558.835938 905.289062 557.898438 906.703125 C 556.957031 908.117188 555.675781 909.230469 554.074219 910.0625 C 552.46875 910.894531 550.710938 911.308594 548.824219 911.308594 L 539.585938 911.308594 L 539.585938 925.308594 Z M 537.34375 925.308594 "/></clipPath><clipPath id="d54060b5d6"><path d="M 536.6875 892.394531 L 559.925781 892.394531 L 559.925781 925.878906 L 536.6875 925.878906 Z M 536.6875 892.394531 "/></clipPath><clipPath id="1a39423018"><path d="M 539.585938 908.414062 L 548.835938 908.414062 L 548.835938 908.957031 L 548.835938 908.414062 C 550.25 908.414062 551.542969 908.128906 552.71875 907.546875 L 552.957031 908.03125 L 552.71875 907.546875 C 553.90625 906.964844 554.832031 906.191406 555.523438 905.230469 C 556.210938 904.269531 556.542969 903.246094 556.542969 902.144531 L 557.089844 902.144531 L 556.542969 902.144531 C 556.542969 901.003906 556.210938 899.957031 555.523438 899.007812 L 555.960938 898.6875 L 555.523438 899.007812 C 554.832031 898.046875 553.90625 897.273438 552.71875 896.691406 L 552.957031 896.207031 L 552.71875 896.691406 C 551.542969 896.121094 550.25 895.824219 548.835938 895.824219 L 548.835938 895.28125 L 548.835938 895.824219 L 539.527344 895.824219 L 539.527344 895.28125 L 540.074219 895.28125 L 540.132812 908.957031 L 539.585938 908.957031 L 539.585938 908.414062 M 539.585938 909.503906 L 539.039062 909.503906 L 539.039062 908.957031 L 538.980469 895.292969 L 538.980469 894.746094 L 548.824219 894.746094 C 550.390625 894.746094 551.851562 895.066406 553.195312 895.71875 C 554.523438 896.371094 555.605469 897.25 556.414062 898.378906 C 557.21875 899.507812 557.636719 900.777344 557.636719 902.15625 C 557.636719 903.496094 557.21875 904.742188 556.414062 905.871094 L 555.972656 905.550781 L 556.414062 905.871094 C 555.605469 907 554.535156 907.878906 553.195312 908.53125 C 551.851562 909.183594 550.402344 909.503906 548.824219 909.503906 Z M 536.796875 925.308594 L 536.75 893 L 536.75 892.453125 L 548.824219 892.453125 L 548.824219 893 L 548.824219 892.453125 C 550.796875 892.453125 552.636719 892.882812 554.324219 893.761719 C 556.007812 894.625 557.351562 895.800781 558.347656 897.273438 C 559.355469 898.757812 559.855469 900.386719 559.855469 902.15625 L 559.308594 902.15625 L 559.855469 902.15625 C 559.855469 903.886719 559.34375 905.515625 558.347656 907.011719 C 557.351562 908.496094 555.996094 909.683594 554.324219 910.550781 C 552.636719 911.417969 550.796875 911.855469 548.824219 911.855469 L 548.824219 911.308594 L 548.824219 911.855469 L 539.585938 911.855469 L 539.585938 911.308594 L 540.132812 911.308594 L 540.132812 925.855469 L 536.796875 925.855469 L 536.796875 925.308594 M 537.890625 925.308594 L 537.34375 925.308594 L 537.34375 924.761719 L 539.585938 924.761719 L 539.585938 925.308594 L 539.039062 925.308594 L 539.039062 910.75 L 548.835938 910.75 C 550.640625 910.75 552.304688 910.359375 553.835938 909.5625 L 554.085938 910.050781 L 553.835938 909.5625 C 555.367188 908.78125 556.566406 907.710938 557.457031 906.394531 L 557.910156 906.703125 L 557.457031 906.394531 C 558.347656 905.074219 558.789062 903.664062 558.789062 902.144531 C 558.789062 900.597656 558.347656 899.175781 557.46875 897.878906 L 557.921875 897.570312 L 557.46875 897.878906 C 556.578125 896.574219 555.378906 895.515625 553.847656 894.734375 L 554.097656 894.246094 L 553.847656 894.734375 C 552.316406 893.949219 550.652344 893.558594 548.847656 893.558594 L 537.296875 893.558594 L 537.296875 893 L 537.839844 893 Z M 537.890625 925.308594 "/></clipPath><clipPath id="363fbec837"><path d="M 582.386719 893 L 584.621094 893 L 584.621094 925.308594 L 582.386719 925.308594 Z M 582.386719 893 "/></clipPath><clipPath id="cb4590cbeb"><path d="M 581.839844 892.453125 L 585.164062 892.453125 L 585.164062 893.546875 L 581.839844 893.546875 Z M 584.074219 893.546875 L 585.164062 893.546875 L 585.164062 924.761719 L 584.074219 924.761719 Z M 581.839844 893.546875 L 582.933594 893.546875 L 582.933594 924.761719 L 581.839844 924.761719 Z M 581.839844 924.761719 L 585.164062 924.761719 L 585.164062 925.855469 L 581.839844 925.855469 Z M 581.839844 924.761719 "/></clipPath><clipPath id="d458d2e7dc"><path d="M 609.605469 893 L 631.746094 893 L 631.746094 925.371094 L 609.605469 925.371094 Z M 609.605469 893 "/></clipPath><clipPath id="08fe01f27e"><path d="M 628.773438 925.308594 L 615.347656 909.003906 L 619.324219 909.003906 C 621.78125 909.003906 623.765625 908.695312 625.285156 908.066406 C 626.414062 907.53125 627.386719 906.738281 628.21875 905.65625 C 629.046875 904.578125 629.464844 903.402344 629.464844 902.105469 C 629.464844 900.941406 629.121094 899.839844 628.417969 898.804688 C 627.71875 897.773438 626.734375 896.90625 625.4375 896.242188 C 624.144531 895.574219 622.660156 895.242188 620.960938 895.242188 L 611.914062 895.242188 L 611.914062 925.308594 L 609.683594 925.308594 L 609.683594 893 L 620.960938 893 C 622.480469 893 623.90625 893.238281 625.238281 893.722656 C 626.566406 894.210938 627.71875 894.886719 628.714844 895.789062 C 629.679688 896.644531 630.414062 897.628906 630.925781 898.722656 C 631.433594 899.816406 631.695312 900.941406 631.695312 902.105469 C 631.695312 903.921875 631.148438 905.5625 630.058594 907 C 628.964844 908.433594 627.671875 909.480469 626.175781 910.109375 C 625.152344 910.574219 624.144531 910.871094 623.171875 910.976562 C 622.195312 911.082031 621.152344 911.15625 620.058594 911.15625 L 631.742188 925.320312 Z M 628.773438 925.308594 "/></clipPath><clipPath id="33236a2c23"><path d="M 609.046875 892.363281 L 633 892.363281 L 633 925.925781 L 609.046875 925.925781 Z M 609.046875 892.363281 "/></clipPath><clipPath id="b76331d678"><path d="M 628.347656 925.664062 L 614.929688 909.351562 L 614.195312 908.460938 L 619.324219 908.460938 L 619.324219 909.003906 L 619.324219 908.460938 C 621.734375 908.460938 623.644531 908.152344 625.082031 907.558594 L 625.296875 908.054688 L 625.058594 907.558594 C 626.105469 907.070312 627.019531 906.320312 627.789062 905.300781 C 628.550781 904.316406 628.917969 903.246094 628.917969 902.082031 L 629.464844 902.082031 L 628.917969 902.082031 C 628.917969 901.039062 628.609375 900.039062 627.96875 899.078125 C 627.328125 898.128906 626.414062 897.332031 625.1875 896.703125 C 623.988281 896.085938 622.578125 895.765625 620.960938 895.765625 L 620.960938 895.230469 L 620.960938 895.777344 L 611.914062 895.777344 L 611.914062 895.230469 L 612.460938 895.230469 L 612.460938 925.855469 L 609.136719 925.855469 L 609.136719 892.453125 L 620.960938 892.453125 L 620.960938 893 L 620.960938 892.453125 C 622.542969 892.453125 624.039062 892.703125 625.425781 893.199219 L 625.238281 893.710938 L 625.425781 893.199219 C 626.816406 893.699219 628.039062 894.425781 629.085938 895.375 L 628.714844 895.777344 L 629.085938 895.375 C 630.09375 896.277344 630.878906 897.320312 631.421875 898.484375 L 630.925781 898.722656 L 631.421875 898.484375 C 631.96875 899.648438 632.242188 900.859375 632.242188 902.09375 L 631.695312 902.09375 L 632.242188 902.09375 C 632.242188 904.03125 631.660156 905.789062 630.484375 907.320312 C 629.34375 908.828125 627.980469 909.929688 626.390625 910.597656 L 626.175781 910.097656 L 626.402344 910.597656 C 625.332031 911.082031 624.273438 911.390625 623.230469 911.511719 C 622.234375 911.628906 621.175781 911.6875 620.058594 911.6875 L 620.058594 911.144531 L 620.476562 910.796875 L 632.171875 924.964844 L 632.90625 925.855469 L 628.515625 925.855469 L 628.347656 925.652344 M 629.191406 924.964844 L 628.773438 925.308594 L 628.773438 924.761719 L 631.753906 924.761719 L 631.753906 925.308594 L 631.339844 925.652344 L 619.65625 911.488281 L 618.917969 910.597656 L 620.070312 910.597656 C 621.152344 910.597656 622.160156 910.535156 623.113281 910.429688 L 623.171875 910.976562 L 623.113281 910.429688 C 624.027344 910.324219 624.976562 910.050781 625.960938 909.597656 L 625.984375 909.597656 C 627.375 909.015625 628.597656 908.042969 629.640625 906.667969 L 630.082031 907 L 629.640625 906.667969 C 630.664062 905.324219 631.175781 903.804688 631.175781 902.09375 C 631.175781 901.015625 630.9375 899.96875 630.449219 898.949219 C 629.976562 897.925781 629.273438 897 628.371094 896.191406 C 627.433594 895.351562 626.328125 894.695312 625.070312 894.234375 C 623.8125 893.769531 622.445312 893.546875 620.984375 893.546875 L 609.683594 893.546875 L 609.683594 893 L 610.226562 893 L 610.226562 925.308594 L 609.683594 925.308594 L 609.683594 924.761719 L 611.914062 924.761719 L 611.914062 925.308594 L 611.367188 925.308594 L 611.367188 894.683594 L 620.960938 894.683594 C 622.730469 894.683594 624.296875 895.03125 625.6875 895.742188 L 625.4375 896.230469 L 625.6875 895.742188 C 627.054688 896.441406 628.121094 897.34375 628.871094 898.484375 L 628.417969 898.78125 L 628.871094 898.484375 C 629.617188 899.613281 630.011719 900.8125 630.011719 902.09375 C 630.011719 903.507812 629.546875 904.8125 628.65625 905.976562 L 628.230469 905.644531 L 628.65625 905.976562 C 627.777344 907.117188 626.734375 907.984375 625.523438 908.554688 L 625.5 908.554688 C 623.882812 909.21875 621.816406 909.539062 619.324219 909.539062 L 615.347656 909.539062 L 615.347656 908.992188 L 615.761719 908.648438 L 629.179688 924.953125 Z M 629.191406 924.964844 "/></clipPath><clipPath id="53919e5a3f"><path d="M 655.917969 893 L 658.148438 893 L 658.148438 925.308594 L 655.917969 925.308594 Z M 655.917969 893 "/></clipPath><clipPath id="38d1bc228d"><path d="M 655.371094 892.453125 L 658.695312 892.453125 L 658.695312 893.546875 L 655.371094 893.546875 Z M 657.601562 893.546875 L 658.695312 893.546875 L 658.695312 924.761719 L 657.601562 924.761719 Z M 655.371094 893.546875 L 656.460938 893.546875 L 656.460938 924.761719 L 655.371094 924.761719 Z M 655.371094 924.761719 L 658.695312 924.761719 L 658.695312 925.855469 L 655.371094 925.855469 Z M 655.371094 924.761719 "/></clipPath><clipPath id="7eadde3fb2"><path d="M 680.625 893 L 708.519531 893 L 708.519531 895.289062 L 680.625 895.289062 Z M 693.449219 895.289062 L 695.742188 895.289062 L 695.742188 925.308594 L 693.449219 925.308594 Z M 693.449219 895.289062 "/></clipPath><clipPath id="a3c074ad6a"><path d="M 680.082031 892.453125 L 709.066406 892.453125 L 709.066406 893.546875 L 680.082031 893.546875 Z M 680.082031 893.546875 L 681.171875 893.546875 L 681.171875 894.746094 L 680.082031 894.746094 Z M 707.972656 893.546875 L 709.066406 893.546875 L 709.066406 894.746094 L 707.972656 894.746094 Z M 680.082031 894.746094 L 693.996094 894.746094 L 693.996094 895.835938 L 680.082031 895.835938 Z M 695.195312 894.746094 L 709.066406 894.746094 L 709.066406 895.835938 L 695.195312 895.835938 Z M 695.195312 895.835938 L 696.289062 895.835938 L 696.289062 924.761719 L 695.195312 924.761719 Z M 692.90625 895.835938 L 693.996094 895.835938 L 693.996094 924.761719 L 692.90625 924.761719 Z M 692.90625 924.761719 L 696.289062 924.761719 L 696.289062 925.855469 L 692.90625 925.855469 Z M 692.90625 924.761719 "/></clipPath><clipPath id="ef0ea63c9a"><path d="M 730.664062 893 L 755.324219 893 L 755.324219 925.707031 L 730.664062 925.707031 Z M 730.664062 893 "/></clipPath><clipPath id="69acbbf6cc"><path d="M 742.964844 925.664062 C 741.339844 925.664062 739.773438 925.34375 738.265625 924.691406 C 736.757812 924.039062 735.425781 923.125 734.261719 921.9375 C 733.097656 920.808594 732.21875 919.476562 731.601562 917.957031 C 730.984375 916.4375 730.675781 914.824219 730.675781 913.136719 L 730.675781 893 L 732.921875 893 L 732.921875 913.136719 C 732.921875 914.527344 733.183594 915.855469 733.691406 917.117188 C 734.203125 918.375 734.925781 919.464844 735.855469 920.390625 C 736.816406 921.355469 737.90625 922.089844 739.132812 922.601562 C 740.355469 923.113281 741.636719 923.371094 742.953125 923.371094 C 744.320312 923.371094 745.601562 923.113281 746.835938 922.601562 C 748.070312 922.089844 749.152344 921.355469 750.113281 920.390625 C 751.039062 919.464844 751.765625 918.375 752.277344 917.117188 C 752.785156 915.855469 753.046875 914.527344 753.046875 913.136719 L 753.046875 893 L 755.28125 893 L 755.28125 913.136719 C 755.28125 914.824219 754.972656 916.4375 754.367188 917.957031 C 753.761719 919.476562 752.871094 920.808594 751.707031 921.9375 C 750.542969 923.136719 749.222656 924.050781 747.726562 924.691406 C 746.230469 925.332031 744.640625 925.664062 742.953125 925.664062 "/></clipPath><clipPath id="55692ef10b"><path d="M 730.078125 892.386719 L 755.910156 892.386719 L 755.910156 926.292969 L 730.078125 926.292969 Z M 730.078125 892.386719 "/></clipPath><clipPath id="3b4e904de5"><path d="M 742.964844 926.210938 C 741.269531 926.210938 739.628906 925.878906 738.050781 925.203125 L 738.265625 924.703125 L 738.050781 925.203125 C 736.472656 924.523438 735.082031 923.5625 733.871094 922.316406 L 734.261719 921.9375 L 733.882812 922.328125 C 732.671875 921.152344 731.734375 919.761719 731.09375 918.160156 L 731.601562 917.957031 L 731.09375 918.160156 C 730.464844 916.570312 730.140625 914.894531 730.140625 913.136719 L 730.6875 913.136719 L 730.140625 913.136719 L 730.140625 892.453125 L 733.46875 892.453125 L 733.46875 913.136719 L 732.921875 913.136719 L 733.46875 913.136719 C 733.46875 914.457031 733.703125 915.714844 734.191406 916.914062 L 733.679688 917.117188 L 734.191406 916.914062 C 734.679688 918.113281 735.355469 919.144531 736.234375 920.011719 C 737.148438 920.925781 738.179688 921.628906 739.34375 922.101562 C 740.507812 922.589844 741.707031 922.828125 742.964844 922.828125 L 742.964844 923.371094 L 742.964844 922.828125 C 744.261719 922.828125 745.472656 922.589844 746.636719 922.101562 C 747.800781 921.617188 748.832031 920.914062 749.734375 920.011719 C 750.613281 919.132812 751.289062 918.101562 751.777344 916.914062 L 752.289062 917.117188 L 751.777344 916.914062 C 752.265625 915.726562 752.511719 914.46875 752.511719 913.136719 L 753.058594 913.136719 L 752.511719 913.136719 L 752.511719 892.453125 L 755.835938 892.453125 L 755.835938 913.136719 L 755.292969 913.136719 L 755.835938 913.136719 C 755.835938 914.894531 755.515625 916.570312 754.875 918.160156 L 754.367188 917.957031 L 754.875 918.160156 C 754.234375 919.75 753.308594 921.140625 752.085938 922.328125 L 751.707031 921.9375 L 752.097656 922.316406 C 750.898438 923.550781 749.519531 924.511719 747.953125 925.191406 C 746.386719 925.867188 744.722656 926.199219 742.964844 926.199219 L 742.964844 925.652344 L 742.964844 926.199219 M 742.964844 925.105469 C 744.582031 925.105469 746.101562 924.796875 747.527344 924.179688 L 747.738281 924.679688 L 747.527344 924.179688 C 748.949219 923.5625 750.222656 922.683594 751.324219 921.542969 C 752.429688 920.476562 753.273438 919.207031 753.855469 917.757812 C 754.4375 916.296875 754.734375 914.765625 754.734375 913.136719 L 754.734375 893 L 755.28125 893 L 755.28125 893.546875 L 753.058594 893.546875 L 753.058594 893 L 753.605469 893 L 753.605469 913.136719 C 753.605469 914.597656 753.332031 916 752.796875 917.316406 C 752.25 918.636719 751.492188 919.800781 750.519531 920.773438 L 750.136719 920.378906 L 750.53125 920.761719 C 749.519531 921.769531 748.367188 922.554688 747.074219 923.089844 L 746.859375 922.589844 L 747.074219 923.089844 C 745.78125 923.632812 744.414062 923.894531 742.988281 923.894531 C 741.589844 923.894531 740.246094 923.621094 738.953125 923.089844 L 739.167969 922.589844 L 738.953125 923.089844 C 737.660156 922.542969 736.507812 921.769531 735.496094 920.761719 L 735.890625 920.378906 L 735.507812 920.773438 C 734.523438 919.785156 733.765625 918.636719 733.230469 917.316406 C 732.695312 915.988281 732.421875 914.597656 732.421875 913.136719 L 732.421875 893 L 732.96875 893 L 732.96875 893.546875 L 730.6875 893.546875 L 730.6875 893 L 731.234375 893 L 731.234375 913.136719 C 731.234375 914.765625 731.53125 916.296875 732.113281 917.757812 C 732.695312 919.207031 733.539062 920.476562 734.644531 921.542969 C 735.757812 922.683594 737.03125 923.5625 738.464844 924.179688 C 739.902344 924.796875 741.398438 925.105469 742.941406 925.105469 Z M 742.964844 925.105469 "/></clipPath><clipPath id="c2fdc1f322"><path d="M 775.480469 892.585938 L 805.144531 892.585938 L 805.144531 925.453125 L 775.480469 925.453125 Z M 775.480469 892.585938 "/></clipPath><clipPath id="5c5d629dec"><path d="M 790.648438 898.117188 L 782.894531 914.871094 L 798.058594 914.871094 Z M 781.847656 917.117188 L 778.015625 925.308594 L 775.53125 925.308594 L 790.742188 892.605469 L 805.109375 925.320312 L 802.675781 925.320312 L 799.042969 917.117188 Z M 781.847656 917.117188 "/></clipPath><clipPath id="440c6c6fbc"><path d="M 774.640625 891.238281 L 805.988281 891.238281 L 805.988281 925.957031 L 774.640625 925.957031 Z M 774.640625 891.238281 "/></clipPath><clipPath id="b726783fc6"><path d="M 791.148438 898.355469 L 783.382812 915.097656 L 782.882812 914.871094 L 782.882812 914.324219 L 798.058594 914.324219 L 798.058594 914.871094 L 797.558594 915.097656 L 790.148438 898.34375 L 790.648438 898.117188 L 791.148438 898.34375 M 790.160156 897.878906 L 790.671875 896.785156 L 791.160156 897.890625 L 798.566406 914.644531 L 798.914062 915.417969 L 782.039062 915.417969 L 782.394531 914.644531 L 790.148438 897.890625 Z M 782.335938 917.339844 L 778.511719 925.546875 L 778.371094 925.867188 L 774.675781 925.867188 L 775.035156 925.09375 L 790.257812 892.371094 L 790.753906 891.277344 L 791.242188 892.382812 L 805.609375 925.09375 L 805.941406 925.855469 L 802.320312 925.855469 L 802.179688 925.535156 L 798.542969 917.328125 L 799.042969 917.101562 L 799.042969 917.648438 L 781.847656 917.648438 L 781.847656 917.101562 L 782.347656 917.328125 M 781.363281 916.867188 L 781.503906 916.546875 L 799.398438 916.546875 L 799.542969 916.867188 L 803.175781 925.09375 L 802.675781 925.320312 L 802.675781 924.761719 L 805.109375 924.761719 L 805.109375 925.308594 L 804.613281 925.523438 L 790.246094 892.820312 L 790.742188 892.605469 L 791.242188 892.832031 L 776.03125 925.546875 L 775.53125 925.320312 L 775.53125 924.761719 L 778.015625 924.761719 L 778.015625 925.308594 L 777.515625 925.082031 L 781.351562 916.878906 Z M 781.363281 916.867188 "/></clipPath><clipPath id="bd9e68a828"><path d="M 827.039062 893 L 829.273438 893 L 829.273438 923.074219 L 827.039062 923.074219 Z M 827.039062 923.074219 L 847.429688 923.074219 L 847.429688 925.308594 L 827.039062 925.308594 Z M 827.039062 923.074219 "/></clipPath><clipPath id="36a4ed925b"><path d="M 826.492188 892.453125 L 829.820312 892.453125 L 829.820312 893.546875 L 826.492188 893.546875 Z M 828.726562 893.546875 L 829.820312 893.546875 L 829.820312 922.53125 L 828.726562 922.53125 Z M 828.726562 922.53125 L 847.972656 922.53125 L 847.972656 923.621094 L 828.726562 923.621094 Z M 846.882812 923.621094 L 847.972656 923.621094 L 847.972656 924.761719 L 846.882812 924.761719 Z M 826.492188 893.546875 L 827.585938 893.546875 L 827.585938 924.761719 L 826.492188 924.761719 Z M 826.492188 924.761719 L 847.972656 924.761719 L 847.972656 925.308594 L 826.492188 925.308594 Z M 826.492188 925.308594 L 847.972656 925.308594 L 847.972656 925.855469 L 826.492188 925.855469 Z M 826.492188 925.308594 "/></clipPath><clipPath id="a516c99e20"><path d="M 568 632 L 750.835938 632 L 750.835938 833.679688 L 568 833.679688 Z M 568 632 "/></clipPath><clipPath id="2a1fad74c8"><path d="M 581.890625 649.558594 C 579.4375 644.09375 577.273438 640.324219 575.390625 638.25 C 573.503906 636.175781 571.050781 634.769531 568.039062 634.011719 L 568.039062 632.59375 L 615.230469 632.59375 L 615.230469 634.011719 C 611.648438 635.136719 609.574219 637.261719 609.003906 640.375 C 608.4375 643.488281 609.195312 648.144531 611.269531 654.367188 L 670.050781 799.359375 L 723.769531 666.234375 C 727.539062 655.875 728.667969 648.292969 727.160156 643.488281 C 725.65625 638.679688 721.503906 635.527344 714.722656 634.023438 L 714.722656 632.59375 L 750.339844 632.59375 L 750.339844 634.011719 C 746.757812 634.960938 743.925781 636.515625 741.863281 638.679688 C 739.800781 640.84375 737.523438 644.574219 735.082031 649.839844 L 660.738281 833.265625 L 656.222656 833.265625 Z M 581.890625 649.558594 "/></clipPath><clipPath id="5dedbb767a"><path d="M 719 629.355469 L 901.96875 629.355469 L 901.96875 831 L 719 831 Z M 719 629.355469 "/></clipPath><clipPath id="ef3c3dd4c4"><path d="M 835.121094 751.863281 L 799.503906 663.679688 L 763.890625 751.863281 Z M 887.6875 813.476562 C 890.128906 818.945312 892.304688 822.714844 894.191406 824.789062 C 896.078125 826.863281 898.519531 828.28125 901.542969 829.027344 L 901.542969 830.445312 L 854.339844 830.445312 L 854.339844 829.027344 C 857.917969 827.902344 859.992188 825.777344 860.550781 822.664062 C 861.105469 819.550781 860.359375 814.894531 858.285156 808.671875 L 837.09375 756.101562 L 762.195312 756.101562 L 745.808594 796.523438 C 742.039062 807.074219 740.671875 814.753906 741.710938 819.5625 C 742.75 824.371094 746.191406 827.519531 752.023438 829.027344 L 752.023438 830.445312 L 719.242188 830.445312 L 719.242188 829.027344 C 722.820312 828.089844 725.644531 826.535156 727.71875 824.371094 C 729.792969 822.207031 732.042969 818.488281 734.5 813.210938 L 808.84375 629.773438 L 813.359375 629.773438 Z M 887.6875 813.476562 "/></clipPath><clipPath id="3b4df2f291"><path d="M 902.144531 893 L 927.328125 893 L 927.328125 925.328125 L 902.144531 925.328125 Z M 902.144531 893 "/></clipPath><clipPath id="5bc4a4e4ef"><path d="M 904.492188 923.074219 L 911.558594 923.074219 C 915.570312 923.074219 918.835938 921.664062 921.351562 918.847656 C 922.515625 917.589844 923.394531 916.128906 924.011719 914.445312 C 924.628906 912.757812 924.925781 910.988281 924.925781 909.101562 C 924.925781 907.246094 924.617188 905.480469 924.011719 903.804688 C 923.40625 902.128906 922.515625 900.667969 921.351562 899.410156 C 918.800781 896.65625 915.535156 895.277344 911.558594 895.277344 L 904.492188 895.277344 Z M 911.558594 925.308594 L 902.257812 925.308594 L 902.257812 893 L 911.558594 893 C 913.847656 893 915.960938 893.414062 917.921875 894.269531 C 919.878906 895.125 921.566406 896.3125 922.992188 897.878906 C 924.34375 899.375 925.390625 901.085938 926.125 902.996094 C 926.863281 904.910156 927.21875 906.964844 927.21875 909.113281 C 927.21875 911.261719 926.851562 913.304688 926.125 915.226562 C 925.402344 917.152344 924.355469 918.871094 922.992188 920.394531 C 921.566406 921.984375 919.878906 923.207031 917.921875 924.050781 C 915.960938 924.894531 913.847656 925.320312 911.558594 925.320312 "/></clipPath><clipPath id="8404ef8ee5"><path d="M 901.703125 892.441406 L 927.773438 892.441406 L 927.773438 925.917969 L 901.703125 925.917969 Z M 901.703125 892.441406 "/></clipPath><clipPath id="1fc9e9be62"><path d="M 904.492188 922.53125 L 911.558594 922.53125 L 911.558594 923.074219 L 911.558594 922.53125 C 915.429688 922.53125 918.539062 921.175781 920.949219 918.480469 C 922.054688 917.28125 922.910156 915.867188 923.503906 914.265625 L 924.011719 914.457031 L 923.503906 914.265625 C 924.097656 912.652344 924.394531 910.941406 924.394531 909.113281 L 924.9375 909.113281 L 924.394531 909.113281 C 924.394531 907.320312 924.097656 905.621094 923.503906 904.007812 L 924.011719 903.816406 L 923.503906 904.007812 C 922.910156 902.402344 922.066406 900.992188 920.949219 899.792969 L 921.351562 899.421875 L 920.949219 899.792969 C 918.503906 897.15625 915.390625 895.835938 911.558594 895.835938 L 911.558594 895.289062 L 911.558594 895.835938 L 904.492188 895.835938 L 904.492188 895.289062 L 905.039062 895.289062 L 905.039062 923.074219 L 904.492188 923.074219 L 904.492188 922.53125 M 904.492188 923.621094 L 903.945312 923.621094 L 903.945312 894.746094 L 911.558594 894.746094 C 915.675781 894.746094 919.085938 896.179688 921.746094 899.042969 C 922.957031 900.359375 923.882812 901.882812 924.511719 903.625 C 925.152344 905.359375 925.460938 907.1875 925.460938 909.113281 C 925.460938 911.058594 925.140625 912.910156 924.511719 914.644531 C 923.871094 916.390625 922.945312 917.910156 921.746094 919.230469 L 921.339844 918.859375 L 921.746094 919.230469 C 919.121094 922.171875 915.699219 923.632812 911.546875 923.632812 L 904.492188 923.632812 Z M 911.558594 925.855469 L 901.714844 925.855469 L 901.714844 892.453125 L 911.558594 892.453125 L 911.558594 893 L 911.558594 892.453125 C 913.90625 892.453125 916.105469 892.890625 918.136719 893.757812 C 920.152344 894.636719 921.910156 895.882812 923.394531 897.5 C 924.796875 899.042969 925.878906 900.8125 926.636719 902.796875 C 927.386719 904.777344 927.765625 906.890625 927.765625 909.101562 L 927.21875 909.101562 L 927.765625 909.101562 C 927.765625 911.320312 927.386719 913.421875 926.636719 915.40625 L 926.125 915.214844 L 926.636719 915.40625 C 925.890625 917.386719 924.808594 919.167969 923.40625 920.75 C 921.933594 922.398438 920.175781 923.65625 918.148438 924.535156 C 916.117188 925.414062 913.921875 925.855469 911.570312 925.855469 L 911.570312 925.308594 L 911.570312 925.855469 M 911.570312 924.761719 C 913.789062 924.761719 915.832031 924.359375 917.71875 923.539062 L 917.933594 924.039062 L 917.71875 923.539062 C 919.597656 922.71875 921.222656 921.554688 922.601562 920.023438 L 923.003906 920.394531 L 922.601562 920.023438 C 923.917969 918.550781 924.925781 916.890625 925.628906 915.027344 C 926.328125 913.171875 926.683594 911.191406 926.683594 909.101562 C 926.683594 907.011719 926.328125 905.039062 925.628906 903.175781 L 926.136719 902.984375 L 925.628906 903.175781 C 924.925781 901.3125 923.917969 899.671875 922.601562 898.222656 L 923.003906 897.855469 L 922.601562 898.222656 C 921.222656 896.726562 919.597656 895.5625 917.71875 894.757812 L 917.933594 894.257812 L 917.71875 894.757812 C 915.832031 893.9375 913.789062 893.535156 911.570312 893.535156 L 902.257812 893.535156 L 902.257812 893 L 902.804688 893 L 902.804688 925.308594 L 902.257812 925.308594 L 902.257812 924.761719 Z M 911.570312 924.761719 "/></clipPath><clipPath id="de65ed4ffa"><path d="M 948.039062 892.59375 L 980.871094 892.59375 L 980.871094 925.78125 L 948.039062 925.78125 Z M 948.039062 892.59375 "/></clipPath><clipPath id="521cfcfad1"><path d="M 964.449219 894.945312 C 961.898438 894.945312 959.546875 895.585938 957.382812 896.855469 C 955.222656 898.125 953.511719 899.859375 952.242188 902.03125 C 950.972656 904.207031 950.332031 906.582031 950.332031 909.167969 C 950.332031 911.757812 950.972656 914.132812 952.242188 916.304688 C 953.511719 918.476562 955.234375 920.199219 957.382812 921.480469 C 959.535156 922.765625 961.898438 923.394531 964.449219 923.394531 C 967.003906 923.394531 969.355469 922.753906 971.515625 921.480469 C 973.675781 920.210938 975.375 918.476562 976.632812 916.304688 C 977.890625 914.132812 978.519531 911.757812 978.519531 909.167969 C 978.519531 906.582031 977.890625 904.207031 976.632812 902.03125 C 975.375 899.859375 973.664062 898.136719 971.515625 896.855469 C 969.367188 895.574219 967.003906 894.945312 964.449219 894.945312 M 964.449219 925.675781 C 961.503906 925.675781 958.761719 924.9375 956.246094 923.464844 C 953.726562 921.992188 951.730469 919.984375 950.285156 917.445312 C 948.835938 914.902344 948.097656 912.148438 948.097656 909.167969 C 948.097656 906.1875 948.824219 903.421875 950.285156 900.890625 C 951.742188 898.363281 953.726562 896.355469 956.246094 894.871094 C 958.761719 893.386719 961.492188 892.664062 964.449219 892.664062 C 967.40625 892.664062 970.136719 893.398438 972.65625 894.871094 C 975.171875 896.34375 977.15625 898.351562 978.617188 900.890625 C 980.074219 903.433594 980.800781 906.1875 980.800781 909.167969 C 980.800781 912.148438 980.074219 914.914062 978.617188 917.445312 C 977.15625 919.972656 975.171875 921.992188 972.65625 923.464844 C 970.136719 924.9375 967.40625 925.675781 964.449219 925.675781 "/></clipPath><clipPath id="5366f4697e"><path d="M 947.503906 892.054688 L 981.40625 892.054688 L 981.40625 926.316406 L 947.503906 926.316406 Z M 947.503906 892.054688 "/></clipPath><clipPath id="43383c8500"><path d="M 964.449219 895.476562 C 961.992188 895.476562 959.734375 896.09375 957.667969 897.320312 L 957.394531 896.855469 L 957.667969 897.332031 C 955.589844 898.566406 953.941406 900.214844 952.71875 902.304688 C 951.496094 904.382812 950.878906 906.664062 950.878906 909.15625 L 950.332031 909.15625 L 950.878906 909.15625 C 950.878906 911.652344 951.496094 913.929688 952.71875 916.007812 C 953.941406 918.097656 955.589844 919.761719 957.667969 920.984375 C 959.734375 922.207031 961.992188 922.824219 964.449219 922.824219 L 964.449219 923.371094 L 964.449219 922.824219 C 966.90625 922.824219 969.164062 922.207031 971.230469 920.984375 C 973.308594 919.761719 974.945312 918.097656 976.15625 916.007812 L 976.632812 916.28125 L 976.15625 916.007812 C 977.367188 913.917969 977.972656 911.640625 977.972656 909.144531 L 978.519531 909.144531 L 977.972656 909.144531 C 977.972656 906.652344 977.367188 904.371094 976.15625 902.28125 L 976.632812 902.007812 L 976.15625 902.28125 C 974.945312 900.191406 973.308594 898.542969 971.230469 897.304688 L 971.503906 896.832031 L 971.230469 897.304688 C 969.164062 896.09375 966.90625 895.476562 964.449219 895.476562 L 964.449219 894.945312 L 964.449219 895.488281 M 964.449219 894.398438 C 967.097656 894.398438 969.542969 895.0625 971.789062 896.378906 C 974.019531 897.710938 975.800781 899.492188 977.109375 901.746094 C 978.414062 904.003906 979.066406 906.472656 979.066406 909.15625 C 979.066406 911.839844 978.414062 914.308594 977.109375 916.566406 C 975.800781 918.824219 974.03125 920.617188 971.789062 921.933594 L 971.515625 921.457031 L 971.789062 921.933594 C 969.542969 923.261719 967.097656 923.929688 964.449219 923.929688 C 961.800781 923.929688 959.355469 923.261719 957.109375 921.933594 L 957.382812 921.457031 L 957.109375 921.933594 C 954.878906 920.605469 953.097656 918.824219 951.78125 916.566406 L 952.253906 916.292969 L 951.78125 916.566406 C 950.449219 914.308594 949.785156 911.839844 949.785156 909.15625 C 949.785156 906.472656 950.449219 904.003906 951.78125 901.746094 L 952.253906 902.019531 L 951.78125 901.746094 C 953.097656 899.503906 954.878906 897.710938 957.109375 896.378906 C 959.355469 895.0625 961.800781 894.398438 964.449219 894.398438 Z M 964.449219 926.207031 C 961.410156 926.207031 958.570312 925.449219 955.972656 923.917969 L 956.246094 923.441406 L 955.972656 923.917969 C 953.371094 922.398438 951.316406 920.320312 949.808594 917.707031 L 950.285156 917.433594 L 949.808594 917.707031 C 948.300781 915.082031 947.550781 912.230469 947.550781 909.15625 L 948.097656 909.15625 L 947.550781 909.15625 C 947.550781 906.082031 948.300781 903.230469 949.808594 900.609375 C 951.316406 897.996094 953.371094 895.917969 955.972656 894.398438 L 956.246094 894.871094 L 955.972656 894.398438 C 958.582031 892.867188 961.410156 892.105469 964.449219 892.105469 L 964.449219 892.652344 L 964.449219 892.105469 C 967.488281 892.105469 970.328125 892.867188 972.929688 894.398438 C 975.527344 895.917969 977.582031 897.996094 979.089844 900.609375 C 980.597656 903.230469 981.347656 906.082031 981.347656 909.15625 L 980.800781 909.15625 L 981.347656 909.15625 C 981.347656 912.230469 980.597656 915.082031 979.089844 917.707031 L 978.617188 917.433594 L 979.089844 917.707031 C 977.582031 920.320312 975.527344 922.398438 972.929688 923.917969 C 970.328125 925.4375 967.488281 926.207031 964.449219 926.207031 L 964.449219 925.664062 L 964.449219 926.207031 M 964.449219 925.117188 C 967.300781 925.117188 969.949219 924.402344 972.382812 922.980469 L 972.65625 923.453125 L 972.382812 922.980469 C 974.816406 921.554688 976.738281 919.617188 978.152344 917.160156 C 979.566406 914.714844 980.265625 912.042969 980.265625 909.15625 C 980.265625 906.273438 979.566406 903.601562 978.152344 901.152344 L 978.628906 900.878906 L 978.152344 901.152344 C 976.738281 898.695312 974.816406 896.761719 972.382812 895.335938 L 972.65625 894.859375 L 972.382812 895.335938 C 969.949219 893.910156 967.3125 893.199219 964.449219 893.199219 C 961.585938 893.199219 958.953125 893.910156 956.515625 895.335938 C 954.082031 896.761719 952.160156 898.695312 950.746094 901.152344 L 950.273438 900.878906 L 950.746094 901.152344 C 949.332031 903.601562 948.632812 906.273438 948.632812 909.15625 C 948.632812 912.042969 949.332031 914.714844 950.746094 917.160156 C 952.160156 919.617188 954.082031 921.554688 956.515625 922.980469 C 958.953125 924.402344 961.585938 925.117188 964.449219 925.117188 Z M 964.449219 925.117188 "/></clipPath><clipPath id="e43f843000"><path d="M 623 21.640625 L 991 21.640625 L 991 388.730469 L 623 388.730469 Z M 623 21.640625 "/></clipPath><clipPath id="feb6906a52"><path d="M 973.554688 120.394531 C 964.839844 100.832031 952.945312 82.695312 938.097656 67.230469 C 922.933594 51.449219 904.890625 38.617188 885.359375 28.792969 C 880.199219 26.195312 874.949219 23.703125 869.507812 21.722656 C 868.179688 21.246094 866.925781 23.277344 868.074219 24.179688 C 883.347656 36.054688 897.253906 49.789062 908.460938 65.625 C 919.257812 80.894531 927.425781 97.898438 932.460938 115.90625 C 937.871094 135.242188 939.847656 155.585938 938.71875 175.625 C 937.621094 195.15625 933.1875 214.492188 925.25 232.378906 C 917.191406 250.492188 905.738281 266.929688 892.042969 281.226562 C 877.867188 296.039062 861.414062 308.675781 842.980469 317.757812 C 825.109375 326.578125 805.597656 331.84375 785.75 333.507812 C 765.777344 335.1875 745.367188 333.59375 725.925781 328.71875 C 708.109375 324.246094 691.160156 316.839844 675.871094 306.679688 C 660.230469 296.285156 646.535156 283.171875 634.832031 268.503906 C 631.757812 264.648438 628.84375 260.691406 626.03125 256.660156 C 626.015625 256.625 625.980469 256.609375 625.945312 256.574219 C 625.835938 256.429688 625.714844 256.308594 625.570312 256.21875 C 625.570312 256.21875 625.554688 256.203125 625.554688 256.203125 C 624.917969 255.8125 624.050781 255.988281 623.59375 256.519531 C 623.574219 256.539062 623.539062 256.554688 623.523438 256.589844 C 623.488281 256.644531 623.46875 256.695312 623.433594 256.75 C 623.238281 257.050781 623.1875 257.421875 623.34375 257.808594 C 630.414062 281.246094 643.175781 303.371094 659.011719 321.964844 C 675.304688 341.089844 695.527344 357.136719 717.953125 368.484375 C 740.910156 380.09375 766.273438 386.671875 791.953125 388.226562 C 819.507812 389.90625 847.308594 384.992188 872.863281 374.667969 C 894.992188 365.726562 915.195312 352.558594 932.320312 335.945312 C 950.363281 318.449219 965.210938 297.488281 975.144531 274.371094 C 985.464844 250.367188 990.644531 224.140625 990.679688 198.019531 C 990.714844 171.136719 984.441406 144.890625 973.535156 120.394531 "/></clipPath><clipPath id="7f3d4c6f35"><path d="M 498 303 L 1115.851562 303 L 1115.851562 559 L 498 559 Z M 498 303 "/></clipPath><clipPath id="68423baed2"><path d="M 1109.589844 305.085938 C 1104.074219 302.222656 1098.011719 303.480469 1093.804688 309.613281 C 1075.179688 336.792969 1056.816406 364.152344 1038.46875 391.53125 C 1037.640625 392.785156 1037.425781 394.941406 1037.796875 396.445312 C 1040.378906 406.871094 1037.496094 415.105469 1028.273438 420.90625 C 1021.34375 425.269531 1014.273438 429.546875 1006.851562 432.976562 C 987.199219 442.078125 967.332031 450.773438 947.464844 459.398438 C 945.964844 460.050781 943.738281 458.992188 941.847656 458.726562 C 942.90625 457.578125 943.773438 455.828125 945.082031 455.351562 C 971.699219 445.648438 997.128906 433.433594 1021.730469 419.472656 C 1024.558594 417.863281 1027.300781 415.9375 1029.597656 413.675781 C 1033.46875 409.875 1035.394531 405.121094 1033.484375 399.75 C 1031.558594 394.289062 1027.175781 390.648438 1021.589844 390.71875 C 1015.953125 390.789062 1009.910156 391.777344 1004.800781 394.039062 C 985.660156 402.542969 966.765625 411.660156 947.875 420.691406 C 934.371094 427.144531 920.214844 430.148438 905.277344 431.386719 C 893.402344 432.355469 881.191406 434.230469 870.074219 438.3125 C 866.980469 439.460938 864.011719 440.71875 861.113281 442.042969 C 840.097656 457.242188 824.933594 479.722656 818.976562 505.792969 C 815.496094 521.042969 812.402344 535.539062 806.960938 549.675781 C 801.496094 535.539062 798.40625 521.042969 794.921875 505.792969 C 788.984375 479.722656 773.804688 457.242188 752.789062 442.042969 C 749.890625 440.71875 746.921875 439.445312 743.828125 438.3125 C 732.730469 434.230469 720.5 432.355469 708.621094 431.386719 C 693.6875 430.148438 679.53125 427.160156 666.027344 420.691406 C 647.117188 411.660156 628.242188 402.542969 609.101562 394.039062 C 603.976562 391.761719 597.949219 390.789062 592.308594 390.71875 C 586.726562 390.648438 582.359375 394.289062 580.414062 399.75 C 578.507812 405.121094 580.433594 409.875 584.304688 413.675781 C 586.617188 415.9375 589.359375 417.882812 592.167969 419.472656 C 616.769531 433.453125 642.203125 445.648438 668.820312 455.351562 C 670.128906 455.828125 670.992188 457.578125 672.054688 458.726562 C 670.164062 458.992188 667.9375 460.035156 666.433594 459.398438 C 646.570312 450.753906 626.722656 442.078125 607.050781 432.976562 C 599.644531 429.546875 592.574219 425.269531 585.648438 420.90625 C 576.4375 415.105469 573.539062 406.871094 576.121094 396.445312 C 576.492188 394.921875 576.296875 392.765625 575.449219 391.53125 C 557.105469 364.152344 538.742188 336.792969 520.113281 309.613281 C 515.90625 303.480469 509.859375 302.222656 504.328125 305.085938 C 499.027344 307.84375 496.535156 313.996094 499.097656 320.65625 C 511.398438 352.613281 523.683594 384.585938 536.65625 416.292969 C 539.554688 423.359375 544.554688 429.847656 549.628906 435.714844 C 551.554688 437.960938 553.5 440.1875 555.441406 442.414062 C 590.261719 481.191406 615.164062 496.511719 621.648438 500.136719 C 633.632812 506.535156 645.808594 512.703125 657.878906 519.011719 C 657.878906 519.011719 657.898438 519.011719 657.898438 519.011719 C 659.648438 519.929688 661.398438 520.851562 663.148438 521.769531 C 678.734375 529.546875 728.398438 551.480469 803.617188 557.683594 C 803.53125 557.859375 803.476562 558.035156 803.390625 558.195312 C 804.589844 558.105469 805.757812 558.019531 806.941406 557.929688 C 808.125 558.019531 809.292969 558.125 810.492188 558.195312 C 810.421875 558.019531 810.351562 557.839844 810.265625 557.683594 C 885.464844 551.480469 935.148438 529.5625 950.734375 521.769531 C 952.484375 520.851562 954.234375 519.929688 955.984375 519.011719 C 968.058594 512.71875 980.234375 506.535156 992.21875 500.136719 C 998.703125 496.511719 1023.605469 481.191406 1058.421875 442.414062 C 1060.367188 440.1875 1062.3125 437.960938 1064.238281 435.714844 C 1069.308594 429.847656 1074.3125 423.378906 1077.210938 416.292969 C 1090.183594 384.601562 1102.464844 352.628906 1114.769531 320.65625 C 1117.332031 314.011719 1114.820312 307.84375 1109.535156 305.085938 "/></clipPath><clipPath id="a9ea44bf2b"><path d="M 1002.957031 893 L 1027.617188 893 L 1027.617188 925.707031 L 1002.957031 925.707031 Z M 1002.957031 893 "/></clipPath><clipPath id="d4c083b0b3"><path d="M 1015.261719 925.664062 C 1013.632812 925.664062 1012.066406 925.34375 1010.558594 924.691406 C 1009.050781 924.039062 1007.71875 923.125 1006.554688 921.9375 C 1005.390625 920.808594 1004.515625 919.476562 1003.894531 917.957031 C 1003.277344 916.4375 1002.96875 914.824219 1002.96875 913.136719 L 1002.96875 893 L 1005.214844 893 L 1005.214844 913.136719 C 1005.214844 914.527344 1005.476562 915.855469 1005.984375 917.117188 C 1006.496094 918.375 1007.222656 919.464844 1008.148438 920.390625 C 1009.109375 921.355469 1010.203125 922.089844 1011.425781 922.601562 C 1012.648438 923.113281 1013.929688 923.371094 1015.246094 923.371094 C 1016.613281 923.371094 1017.894531 923.113281 1019.128906 922.601562 C 1020.367188 922.089844 1021.445312 921.355469 1022.40625 920.390625 C 1023.335938 919.464844 1024.058594 918.375 1024.570312 917.117188 C 1025.078125 915.855469 1025.339844 914.527344 1025.339844 913.136719 L 1025.339844 893 L 1027.574219 893 L 1027.574219 913.136719 C 1027.574219 914.824219 1027.265625 916.4375 1026.660156 917.957031 C 1026.054688 919.476562 1025.164062 920.808594 1024 921.9375 C 1022.835938 923.136719 1021.515625 924.050781 1020.019531 924.691406 C 1018.523438 925.332031 1016.933594 925.664062 1015.246094 925.664062 "/></clipPath><clipPath id="660f3c9e4d"><path d="M 1002.371094 892.386719 L 1028.203125 892.386719 L 1028.203125 926.292969 L 1002.371094 926.292969 Z M 1002.371094 892.386719 "/></clipPath><clipPath id="d41ee01c1e"><path d="M 1015.261719 926.210938 C 1013.5625 926.210938 1011.921875 925.878906 1010.34375 925.203125 L 1010.558594 924.703125 L 1010.34375 925.203125 C 1008.765625 924.523438 1007.375 923.5625 1006.164062 922.316406 L 1006.554688 921.9375 L 1006.175781 922.328125 C 1004.964844 921.152344 1004.027344 919.761719 1003.386719 918.160156 L 1003.894531 917.957031 L 1003.386719 918.160156 C 1002.757812 916.570312 1002.4375 914.894531 1002.4375 913.136719 L 1002.980469 913.136719 L 1002.4375 913.136719 L 1002.4375 892.453125 L 1005.761719 892.453125 L 1005.761719 913.136719 L 1005.214844 913.136719 L 1005.761719 913.136719 C 1005.761719 914.457031 1006 915.714844 1006.484375 916.914062 L 1005.972656 917.117188 L 1006.484375 916.914062 C 1006.972656 918.113281 1007.648438 919.144531 1008.527344 920.011719 C 1009.441406 920.925781 1010.476562 921.628906 1011.636719 922.101562 C 1012.800781 922.589844 1014 922.828125 1015.261719 922.828125 L 1015.261719 923.371094 L 1015.261719 922.828125 C 1016.554688 922.828125 1017.765625 922.589844 1018.929688 922.101562 C 1020.09375 921.617188 1021.125 920.914062 1022.027344 920.011719 C 1022.90625 919.132812 1023.582031 918.101562 1024.070312 916.914062 L 1024.582031 917.117188 L 1024.070312 916.914062 C 1024.558594 915.726562 1024.804688 914.46875 1024.804688 913.136719 L 1025.351562 913.136719 L 1024.804688 913.136719 L 1024.804688 892.453125 L 1028.132812 892.453125 L 1028.132812 913.136719 L 1027.585938 913.136719 L 1028.132812 913.136719 C 1028.132812 914.894531 1027.8125 916.570312 1027.167969 918.160156 L 1026.660156 917.957031 L 1027.167969 918.160156 C 1026.527344 919.75 1025.601562 921.140625 1024.378906 922.328125 L 1024 921.9375 L 1024.390625 922.316406 C 1023.191406 923.550781 1021.8125 924.511719 1020.246094 925.191406 C 1018.679688 925.867188 1017.015625 926.199219 1015.261719 926.199219 L 1015.261719 925.652344 L 1015.261719 926.199219 M 1015.261719 925.105469 C 1016.875 925.105469 1018.394531 924.796875 1019.820312 924.179688 L 1020.035156 924.679688 L 1019.820312 924.179688 C 1021.246094 923.5625 1022.515625 922.683594 1023.621094 921.542969 C 1024.722656 920.476562 1025.566406 919.207031 1026.148438 917.757812 C 1026.730469 916.296875 1027.027344 914.765625 1027.027344 913.136719 L 1027.027344 893 L 1027.574219 893 L 1027.574219 893.546875 L 1025.351562 893.546875 L 1025.351562 893 L 1025.898438 893 L 1025.898438 913.136719 C 1025.898438 914.597656 1025.625 916 1025.089844 917.316406 C 1024.546875 918.636719 1023.785156 919.800781 1022.8125 920.773438 L 1022.433594 920.378906 L 1022.824219 920.761719 C 1021.8125 921.769531 1020.664062 922.554688 1019.367188 923.089844 L 1019.15625 922.589844 L 1019.367188 923.089844 C 1018.074219 923.632812 1016.707031 923.894531 1015.285156 923.894531 C 1013.882812 923.894531 1012.539062 923.621094 1011.246094 923.089844 L 1011.460938 922.589844 L 1011.246094 923.089844 C 1009.953125 922.542969 1008.800781 921.769531 1007.789062 920.761719 L 1008.183594 920.378906 L 1007.804688 920.773438 C 1006.816406 919.785156 1006.058594 918.636719 1005.523438 917.316406 C 1004.988281 915.988281 1004.714844 914.597656 1004.714844 913.136719 L 1004.714844 893 L 1005.261719 893 L 1005.261719 893.546875 L 1002.980469 893.546875 L 1002.980469 893 L 1003.527344 893 L 1003.527344 913.136719 C 1003.527344 914.765625 1003.824219 916.296875 1004.40625 917.757812 C 1004.988281 919.207031 1005.832031 920.476562 1006.9375 921.542969 C 1008.050781 922.683594 1009.324219 923.5625 1010.757812 924.179688 C 1012.195312 924.796875 1013.691406 925.105469 1015.234375 925.105469 Z M 1015.261719 925.105469 "/></clipPath><clipPath id="819407ce96"><path d="M 918.492188 632.597656 L 1070 632.597656 L 1070 830.683594 L 918.492188 830.683594 Z M 918.492188 632.597656 "/></clipPath><clipPath id="6edb8bd23c"><path d="M 1055.285156 830.433594 L 932.625 648.425781 L 932.625 776.742188 C 932.625 786.535156 932.90625 794.679688 933.472656 801.183594 C 934.042969 807.6875 934.929688 812.914062 936.15625 816.871094 C 937.382812 820.832031 939.078125 823.703125 941.242188 825.488281 C 943.40625 827.273438 946.1875 828.460938 949.578125 829.019531 L 949.578125 830.433594 L 918.492188 830.433594 L 918.492188 829.019531 C 922.265625 828.449219 924.859375 826.148438 926.261719 822.097656 C 927.667969 818.050781 928.386719 811.40625 928.386719 802.171875 L 928.386719 655.207031 C 928.386719 641.074219 925.085938 634.015625 918.492188 634.015625 L 918.492188 632.597656 L 952.414062 632.597656 L 1055.285156 785.21875 L 1055.285156 686.292969 C 1055.285156 676.5 1055.007812 668.351562 1054.4375 661.847656 C 1053.871094 655.34375 1052.984375 650.121094 1051.757812 646.160156 C 1050.527344 642.199219 1048.832031 639.328125 1046.671875 637.542969 C 1044.507812 635.761719 1041.722656 634.570312 1038.332031 634.015625 L 1038.332031 632.597656 L 1069.417969 632.597656 L 1069.417969 634.015625 C 1065.648438 634.582031 1063.054688 636.886719 1061.648438 640.933594 C 1060.246094 644.984375 1059.523438 651.625 1059.523438 660.863281 L 1059.523438 830.433594 Z M 1055.285156 830.433594 "/></clipPath><clipPath id="4ed6140e20"><path d="M 1051.605469 893 L 1053.835938 893 L 1053.835938 923.074219 L 1051.605469 923.074219 Z M 1051.605469 923.074219 L 1071.992188 923.074219 L 1071.992188 925.308594 L 1051.605469 925.308594 Z M 1051.605469 923.074219 "/></clipPath><clipPath id="72ebb4b115"><path d="M 1051.058594 892.453125 L 1054.382812 892.453125 L 1054.382812 893.546875 L 1051.058594 893.546875 Z M 1053.292969 893.546875 L 1054.382812 893.546875 L 1054.382812 922.53125 L 1053.292969 922.53125 Z M 1053.292969 922.53125 L 1072.539062 922.53125 L 1072.539062 923.621094 L 1053.292969 923.621094 Z M 1071.445312 923.621094 L 1072.539062 923.621094 L 1072.539062 924.761719 L 1071.445312 924.761719 Z M 1051.058594 893.546875 L 1052.152344 893.546875 L 1052.152344 924.761719 L 1051.058594 924.761719 Z M 1051.058594 924.761719 L 1072.539062 924.761719 L 1072.539062 925.308594 L 1051.058594 925.308594 Z M 1051.058594 925.308594 L 1072.539062 925.308594 L 1072.539062 925.855469 L 1051.058594 925.855469 Z M 1051.058594 925.308594 "/></clipPath><clipPath id="3dc8c95e6d"><path d="M 1086.375 629.773438 L 1269 629.773438 L 1269 830.578125 L 1086.375 830.578125 Z M 1086.375 629.773438 "/></clipPath><clipPath id="0b6481532a"><path d="M 1202.253906 751.863281 L 1166.636719 663.691406 L 1131.035156 751.863281 Z M 1254.820312 813.476562 C 1257.261719 818.941406 1259.4375 822.710938 1261.324219 824.789062 C 1263.210938 826.863281 1265.652344 828.28125 1268.675781 829.027344 L 1268.675781 830.441406 L 1221.46875 830.441406 L 1221.46875 829.027344 C 1225.050781 827.898438 1227.125 825.773438 1227.695312 822.664062 C 1228.265625 819.550781 1227.503906 814.894531 1225.429688 808.667969 L 1204.226562 756.101562 L 1129.328125 756.101562 L 1112.941406 796.523438 C 1109.171875 807.074219 1107.804688 814.753906 1108.84375 819.5625 C 1109.882812 824.371094 1113.324219 827.519531 1119.15625 829.027344 L 1119.15625 830.441406 L 1086.375 830.441406 L 1086.375 829.027344 C 1089.953125 828.089844 1092.777344 826.535156 1094.851562 824.371094 C 1096.925781 822.207031 1099.175781 818.488281 1101.632812 813.210938 L 1175.960938 629.773438 L 1180.476562 629.773438 Z M 1254.820312 813.476562 "/></clipPath><clipPath id="f65f82fea9"><path d="M 1093.316406 892.585938 L 1122.976562 892.585938 L 1122.976562 925.453125 L 1093.316406 925.453125 Z M 1093.316406 892.585938 "/></clipPath><clipPath id="ce9b400c6f"><path d="M 1108.480469 898.117188 L 1100.726562 914.871094 L 1115.890625 914.871094 Z M 1099.683594 917.117188 L 1095.847656 925.308594 L 1093.363281 925.308594 L 1108.574219 892.605469 L 1122.941406 925.320312 L 1120.507812 925.320312 L 1116.875 917.117188 Z M 1099.683594 917.117188 "/></clipPath><clipPath id="43c1fe0261"><path d="M 1092.472656 891.238281 L 1123.820312 891.238281 L 1123.820312 925.957031 L 1092.472656 925.957031 Z M 1092.472656 891.238281 "/></clipPath><clipPath id="dcc7dfc5c0"><path d="M 1108.980469 898.355469 L 1101.214844 915.097656 L 1100.714844 914.871094 L 1100.714844 914.324219 L 1115.890625 914.324219 L 1115.890625 914.871094 L 1115.390625 915.097656 L 1107.980469 898.34375 L 1108.480469 898.117188 L 1108.980469 898.34375 M 1107.992188 897.878906 L 1108.503906 896.785156 L 1108.992188 897.890625 L 1116.402344 914.644531 L 1116.746094 915.417969 L 1099.871094 915.417969 L 1100.226562 914.644531 L 1107.980469 897.890625 Z M 1100.167969 917.339844 L 1096.34375 925.546875 L 1096.203125 925.867188 L 1092.511719 925.867188 L 1092.867188 925.09375 L 1108.089844 892.371094 L 1108.585938 891.277344 L 1109.074219 892.382812 L 1123.441406 925.09375 L 1123.773438 925.855469 L 1120.152344 925.855469 L 1120.011719 925.535156 L 1116.375 917.328125 L 1116.875 917.101562 L 1116.875 917.648438 L 1099.683594 917.648438 L 1099.683594 917.101562 L 1100.179688 917.328125 M 1099.195312 916.867188 L 1099.335938 916.546875 L 1117.230469 916.546875 L 1117.375 916.867188 L 1121.007812 925.09375 L 1120.507812 925.320312 L 1120.507812 924.761719 L 1122.941406 924.761719 L 1122.941406 925.308594 L 1122.445312 925.523438 L 1108.078125 892.820312 L 1108.574219 892.605469 L 1109.074219 892.832031 L 1093.863281 925.546875 L 1093.363281 925.320312 L 1093.363281 924.761719 L 1095.847656 924.761719 L 1095.847656 925.308594 L 1095.347656 925.082031 L 1099.171875 916.878906 Z M 1099.195312 916.867188 "/></clipPath></defs><g id="7dade352af"><g clip-rule="nonzero" clip-path="url(#5bd72915f3)"><g clip-rule="nonzero" clip-path="url(#f96f739a6e)"><path style=" stroke:none;fill-rule:nonzero;fill:#231f20;fill-opacity:1;" d="M 345.332031 632.597656 L 483.253906 632.597656 L 483.253906 830.320312 L 345.332031 830.320312 Z M 345.332031 632.597656 "/></g></g><g clip-rule="nonzero" clip-path="url(#62a5e390f9)"><g clip-rule="nonzero" clip-path="url(#64a396e7a5)"><path style=" stroke:none;fill-rule:nonzero;fill:#231f20;fill-opacity:1;" d="M 484.28125 886.117188 L 520.460938 886.117188 L 520.460938 932.191406 L 484.28125 932.191406 Z M 484.28125 886.117188 "/></g></g><g clip-rule="nonzero" clip-path="url(#a67fba79e1)"><g clip-rule="nonzero" clip-path="url(#711164a0dd)"><path style=" stroke:none;fill-rule:nonzero;fill:#231f20;fill-opacity:1;" d="M 484.28125 886.117188 L 520.460938 886.117188 L 520.460938 932.191406 L 484.28125 932.191406 Z M 484.28125 886.117188 "/></g></g><g clip-rule="nonzero" clip-path="url(#c111c08005)"><g clip-rule="nonzero" clip-path="url(#372dfb5531)"><path style=" stroke:none;fill-rule:nonzero;fill:#231f20;fill-opacity:1;" d="M 505.863281 632.597656 L 551.082031 632.597656 L 551.082031 830.4375 L 505.863281 830.4375 Z M 505.863281 632.597656 "/></g></g><g clip-rule="nonzero" clip-path="url(#e9a4268934)"><g clip-rule="nonzero" clip-path="url(#c169427b76)"><path style=" stroke:none;fill-rule:nonzero;fill:#231f20;fill-opacity:1;" d="M 530.8125 886.515625 L 565.800781 886.515625 L 565.800781 931.757812 L 530.8125 931.757812 Z M 530.8125 886.515625 "/></g></g><g clip-rule="nonzero" clip-path="url(#d54060b5d6)"><g clip-rule="nonzero" clip-path="url(#1a39423018)"><path style=" stroke:none;fill-rule:nonzero;fill:#231f20;fill-opacity:1;" d="M 530.8125 886.515625 L 565.800781 886.515625 L 565.800781 931.757812 L 530.8125 931.757812 Z M 530.8125 886.515625 "/></g></g><g clip-rule="nonzero" clip-path="url(#363fbec837)"><path style=" stroke:none;fill-rule:nonzero;fill:#231f20;fill-opacity:1;" d="M 575.902344 886.515625 L 591.105469 886.515625 L 591.105469 931.828125 L 575.902344 931.828125 Z M 575.902344 886.515625 "/></g><g clip-rule="nonzero" clip-path="url(#cb4590cbeb)"><path style=" stroke:none;fill-rule:nonzero;fill:#231f20;fill-opacity:1;" d="M 575.902344 886.515625 L 591.105469 886.515625 L 591.105469 931.828125 L 575.902344 931.828125 Z M 575.902344 886.515625 "/></g><g clip-rule="nonzero" clip-path="url(#d458d2e7dc)"><g clip-rule="nonzero" clip-path="url(#08fe01f27e)"><path style=" stroke:none;fill-rule:nonzero;fill:#231f20;fill-opacity:1;" d="M 603.199219 886.515625 L 638.847656 886.515625 L 638.847656 931.777344 L 603.199219 931.777344 Z M 603.199219 886.515625 "/></g></g><g clip-rule="nonzero" clip-path="url(#33236a2c23)"><g clip-rule="nonzero" clip-path="url(#b76331d678)"><path style=" stroke:none;fill-rule:nonzero;fill:#231f20;fill-opacity:1;" d="M 603.199219 886.515625 L 638.847656 886.515625 L 638.847656 931.777344 L 603.199219 931.777344 Z M 603.199219 886.515625 "/></g></g><g clip-rule="nonzero" clip-path="url(#53919e5a3f)"><path style=" stroke:none;fill-rule:nonzero;fill:#231f20;fill-opacity:1;" d="M 649.433594 886.515625 L 664.636719 886.515625 L 664.636719 931.828125 L 649.433594 931.828125 Z M 649.433594 886.515625 "/></g><g clip-rule="nonzero" clip-path="url(#38d1bc228d)"><path style=" stroke:none;fill-rule:nonzero;fill:#231f20;fill-opacity:1;" d="M 649.433594 886.515625 L 664.636719 886.515625 L 664.636719 931.828125 L 649.433594 931.828125 Z M 649.433594 886.515625 "/></g><g clip-rule="nonzero" clip-path="url(#7eadde3fb2)"><path style=" stroke:none;fill-rule:nonzero;fill:#231f20;fill-opacity:1;" d="M 674.144531 886.515625 L 715 886.515625 L 715 931.839844 L 674.144531 931.839844 Z M 674.144531 886.515625 "/></g><g clip-rule="nonzero" clip-path="url(#a3c074ad6a)"><path style=" stroke:none;fill-rule:nonzero;fill:#231f20;fill-opacity:1;" d="M 674.144531 886.515625 L 715 886.515625 L 715 931.839844 L 674.144531 931.839844 Z M 674.144531 886.515625 "/></g><g clip-rule="nonzero" clip-path="url(#ef0ea63c9a)"><g clip-rule="nonzero" clip-path="url(#69acbbf6cc)"><path style=" stroke:none;fill-rule:nonzero;fill:#231f20;fill-opacity:1;" d="M 724.207031 886.515625 L 761.78125 886.515625 L 761.78125 932.164062 L 724.207031 932.164062 Z M 724.207031 886.515625 "/></g></g><g clip-rule="nonzero" clip-path="url(#55692ef10b)"><g clip-rule="nonzero" clip-path="url(#3b4e904de5)"><path style=" stroke:none;fill-rule:nonzero;fill:#231f20;fill-opacity:1;" d="M 724.207031 886.515625 L 761.78125 886.515625 L 761.78125 932.164062 L 724.207031 932.164062 Z M 724.207031 886.515625 "/></g></g><g clip-rule="nonzero" clip-path="url(#c2fdc1f322)"><g clip-rule="nonzero" clip-path="url(#5c5d629dec)"><path style=" stroke:none;fill-rule:nonzero;fill:#231f20;fill-opacity:1;" d="M 768.742188 885.339844 L 811.886719 885.339844 L 811.886719 931.859375 L 768.742188 931.859375 Z M 768.742188 885.339844 "/></g></g><g clip-rule="nonzero" clip-path="url(#440c6c6fbc)"><g clip-rule="nonzero" clip-path="url(#b726783fc6)"><path style=" stroke:none;fill-rule:nonzero;fill:#231f20;fill-opacity:1;" d="M 768.742188 885.339844 L 811.886719 885.339844 L 811.886719 931.859375 L 768.742188 931.859375 Z M 768.742188 885.339844 "/></g></g><g clip-rule="nonzero" clip-path="url(#bd9e68a828)"><path style=" stroke:none;fill-rule:nonzero;fill:#231f20;fill-opacity:1;" d="M 820.558594 886.515625 L 853.90625 886.515625 L 853.90625 931.847656 L 820.558594 931.847656 Z M 820.558594 886.515625 "/></g><g clip-rule="nonzero" clip-path="url(#36a4ed925b)"><path style=" stroke:none;fill-rule:nonzero;fill:#231f20;fill-opacity:1;" d="M 820.558594 886.515625 L 853.90625 886.515625 L 853.90625 931.847656 L 820.558594 931.847656 Z M 820.558594 886.515625 "/></g><g clip-rule="nonzero" clip-path="url(#a516c99e20)"><g clip-rule="nonzero" clip-path="url(#2a1fad74c8)"><path style=" stroke:none;fill-rule:nonzero;fill:#231f20;fill-opacity:1;" d="M 561.710938 623.445312 L 907.878906 623.445312 L 907.878906 839.589844 L 561.710938 839.589844 Z M 561.710938 623.445312 "/></g></g><g clip-rule="nonzero" clip-path="url(#5dedbb767a)"><g clip-rule="nonzero" clip-path="url(#ef3c3dd4c4)"><path style=" stroke:none;fill-rule:nonzero;fill:#231f20;fill-opacity:1;" d="M 561.710938 623.445312 L 907.878906 623.445312 L 907.878906 839.589844 L 561.710938 839.589844 Z M 561.710938 623.445312 "/></g></g><g clip-rule="nonzero" clip-path="url(#3b4df2f291)"><g clip-rule="nonzero" clip-path="url(#5bc4a4e4ef)"><path style=" stroke:none;fill-rule:nonzero;fill:#231f20;fill-opacity:1;" d="M 895.777344 886.515625 L 933.699219 886.515625 L 933.699219 931.84375 L 895.777344 931.84375 Z M 895.777344 886.515625 "/></g></g><g clip-rule="nonzero" clip-path="url(#8404ef8ee5)"><g clip-rule="nonzero" clip-path="url(#1fc9e9be62)"><path style=" stroke:none;fill-rule:nonzero;fill:#231f20;fill-opacity:1;" d="M 895.777344 886.515625 L 933.699219 886.515625 L 933.699219 931.84375 L 895.777344 931.84375 Z M 895.777344 886.515625 "/></g></g><g clip-rule="nonzero" clip-path="url(#de65ed4ffa)"><g clip-rule="nonzero" clip-path="url(#521cfcfad1)"><path style=" stroke:none;fill-rule:nonzero;fill:#231f20;fill-opacity:1;" d="M 941.617188 886.167969 L 987.292969 886.167969 L 987.292969 932.203125 L 941.617188 932.203125 Z M 941.617188 886.167969 "/></g></g><g clip-rule="nonzero" clip-path="url(#5366f4697e)"><g clip-rule="nonzero" clip-path="url(#43383c8500)"><path style=" stroke:none;fill-rule:nonzero;fill:#231f20;fill-opacity:1;" d="M 941.617188 886.167969 L 987.292969 886.167969 L 987.292969 932.203125 L 941.617188 932.203125 Z M 941.617188 886.167969 "/></g></g><g clip-rule="nonzero" clip-path="url(#e43f843000)"><g clip-rule="nonzero" clip-path="url(#feb6906a52)"><path style=" stroke:none;fill-rule:nonzero;fill:#231f20;fill-opacity:1;" d="M 489.324219 12.8125 L 1124.675781 12.8125 L 1124.675781 566.980469 L 489.324219 566.980469 Z M 489.324219 12.8125 "/></g></g><g clip-rule="nonzero" clip-path="url(#7f3d4c6f35)"><g clip-rule="nonzero" clip-path="url(#68423baed2)"><path style=" stroke:none;fill-rule:nonzero;fill:#231f20;fill-opacity:1;" d="M 489.324219 12.8125 L 1124.675781 12.8125 L 1124.675781 566.980469 L 489.324219 566.980469 Z M 489.324219 12.8125 "/></g></g><g clip-rule="nonzero" clip-path="url(#a9ea44bf2b)"><g clip-rule="nonzero" clip-path="url(#d4c083b0b3)"><path style=" stroke:none;fill-rule:nonzero;fill:#231f20;fill-opacity:1;" d="M 996.5 886.515625 L 1034.074219 886.515625 L 1034.074219 932.164062 L 996.5 932.164062 Z M 996.5 886.515625 "/></g></g><g clip-rule="nonzero" clip-path="url(#660f3c9e4d)"><g clip-rule="nonzero" clip-path="url(#d41ee01c1e)"><path style=" stroke:none;fill-rule:nonzero;fill:#231f20;fill-opacity:1;" d="M 996.5 886.515625 L 1034.074219 886.515625 L 1034.074219 932.164062 L 996.5 932.164062 Z M 996.5 886.515625 "/></g></g><g clip-rule="nonzero" clip-path="url(#819407ce96)"><g clip-rule="nonzero" clip-path="url(#6edb8bd23c)"><path style=" stroke:none;fill-rule:nonzero;fill:#231f20;fill-opacity:1;" d="M 918.492188 632.597656 L 1069.417969 632.597656 L 1069.417969 830.683594 L 918.492188 830.683594 Z M 918.492188 632.597656 "/></g></g><g clip-rule="nonzero" clip-path="url(#4ed6140e20)"><path style=" stroke:none;fill-rule:nonzero;fill:#231f20;fill-opacity:1;" d="M 1045.121094 886.515625 L 1078.46875 886.515625 L 1078.46875 931.847656 L 1045.121094 931.847656 Z M 1045.121094 886.515625 "/></g><g clip-rule="nonzero" clip-path="url(#72ebb4b115)"><path style=" stroke:none;fill-rule:nonzero;fill:#231f20;fill-opacity:1;" d="M 1045.121094 886.515625 L 1078.46875 886.515625 L 1078.46875 931.847656 L 1045.121094 931.847656 Z M 1045.121094 886.515625 "/></g><g clip-rule="nonzero" clip-path="url(#3dc8c95e6d)"><g clip-rule="nonzero" clip-path="url(#0b6481532a)"><path style=" stroke:none;fill-rule:nonzero;fill:#231f20;fill-opacity:1;" d="M 1086.375 629.773438 L 1268.667969 629.773438 L 1268.667969 830.578125 L 1086.375 830.578125 Z M 1086.375 629.773438 "/></g></g><g clip-rule="nonzero" clip-path="url(#f65f82fea9)"><g clip-rule="nonzero" clip-path="url(#ce9b400c6f)"><path style=" stroke:none;fill-rule:nonzero;fill:#231f20;fill-opacity:1;" d="M 1086.574219 885.339844 L 1129.71875 885.339844 L 1129.71875 931.859375 L 1086.574219 931.859375 Z M 1086.574219 885.339844 "/></g></g><g clip-rule="nonzero" clip-path="url(#43c1fe0261)"><g clip-rule="nonzero" clip-path="url(#dcc7dfc5c0)"><path style=" stroke:none;fill-rule:nonzero;fill:#231f20;fill-opacity:1;" d="M 1086.574219 885.339844 L 1129.71875 885.339844 L 1129.71875 931.859375 L 1086.574219 931.859375 Z M 1086.574219 885.339844 "/></g></g></g></svg>